<svg xmlns="http://www.w3.org/2000/svg" viewBox="0 0 4000 4000"><defs><style>.cls-1{fill:#823419;}.cls-2{fill:#ff551a;}</style></defs><title>SimpleDesign</title><g id="Ebene_3" data-name="Ebene 3"><path class="cls-1" d="M1512,3142.45c-665,0-1156.25-478.23-1156.25-1138.94S838.07,861,1506.68,861l.66.55h1380.2c202.11,0,376.9,61.69,501.17,165.51,37.19,31.07,196.81,182.1,198,418.26,1.57,308.24-270.94,482.18-288.19,492.79,214.82,101.89,349.61,306,349.61,554.89,0,369.59-318.76,649.53-739.56,649.53H1507.34Z"/></g><g id="Ebene_1" data-name="Ebene 1"><path class="cls-2" d="M2656.35,1927c0,710.65-463.94,1215.51-1144,1215.51-665.42,0-1156.94-478.25-1156.94-1139S838,861,1507,861c569.24,0,1034.89,356.22,1126.75,860.9h-627c-78.59-183-272.93-300.57-494.41-300.57-325.29,0-544.54,235.23-544.54,582.24,0,343.44,215.68,578.67,544.54,578.67,228.34,0,424.14-110.51,492.42-278H1465.41v-377.2Z"/></g></svg>