<svg id="Ebene_1" data-name="Ebene 1" xmlns="http://www.w3.org/2000/svg" xmlns:xlink="http://www.w3.org/1999/xlink" viewBox="0 0 1920 389.18"><defs><style>.cls-1{fill:url(#Unbenannter_Verlauf);}.cls-2{fill:#fff;}</style><linearGradient id="Unbenannter_Verlauf" x1="1161.13" y1="197.41" x2="1496.95" y2="197.41" gradientTransform="translate(2993.91 392) rotate(180)" gradientUnits="userSpaceOnUse"><stop offset="0" stop-color="#fff" stop-opacity="0.6"/><stop offset="1" stop-color="#fff" stop-opacity="0"/></linearGradient></defs><title>svg</title><g id="Ebene_5" data-name="Ebene 5"><rect class="cls-1" x="1496.96" y="189.91" width="335.82" height="9.36"/><path class="cls-2" d="M103.29,317.79Q87.23,300,87.23,266.67V251H128v18.8q0,26.64,22.33,26.64c7.3,0,12.86-2.16,16.64-6.47s5.68-11.29,5.68-21q0-17.24-7.83-30.36t-29-31.53q-26.64-23.51-37.21-42.5T88,121.73q0-32.51,16.45-50.33t47.79-17.83q30.94,0,46.81,17.83t15.87,51.12v11.36H174.19V119.77q0-14.1-5.48-20.56t-16.06-6.46q-21.56,0-21.55,26.24a51.75,51.75,0,0,0,8,27.81q8,12.93,29.18,31.34,27,23.51,37.22,42.7t10.18,45q0,33.69-16.65,51.7t-48.37,18Q119.34,335.61,103.29,317.79Z"/><path class="cls-2" d="M253.9,318q-16.26-17.62-16.25-49.75V121q0-32.11,16.25-49.75t47.2-17.63q30.94,0,47.21,17.63T364.56,121v29H323.82V118.21q0-25.47-21.54-25.46t-21.54,25.46V271.37q0,25.06,21.54,25.07t21.54-25.07V229.45h40.74v38.78q0,32.13-16.25,49.75T301.1,335.61Q270.16,335.61,253.9,318Z"/><path class="cls-2" d="M390.41,57.49h63.85q33.3,0,48.58,15.47t15.27,47.6V137.4q0,42.71-28.2,54.06v.78Q505.57,197,512,211.44t6.47,38.78V298.4a182.68,182.68,0,0,0,.78,19,47.42,47.42,0,0,0,3.92,14.3H479.33a63,63,0,0,1-3.13-12.53q-.79-5.88-.78-21.15V247.87q0-18.81-6.07-26.25t-21-7.44H433.5V331.69H390.41ZM449.17,175q12.93,0,19.39-6.66T475,146V124.87q0-14.9-5.29-21.55t-16.65-6.66H433.5V175Z"/><path class="cls-2" d="M548.28,57.49H665.79V96.66H591.36v72.47h59.15V208.3H591.36v84.22h74.43v39.17H548.28Z"/><path class="cls-2" d="M723.76,57.49h58.37l44.65,274.2H783.69l-7.83-54.45V278h-49L719,331.66H679.11Zm47,183.32-19.2-135.53h-.78L732,240.81Z"/><path class="cls-2" d="M847.54,57.49H909l27.42,196.25h.78L964.66,57.49h61.5v274.2H985.42V124.08h-.78L953.3,331.69h-36L885.93,124.08h-.79V331.69h-37.6Z"/><path class="cls-2" d="M1134.28,57.49h65q33.3,0,48.58,15.47t15.27,47.6v11q0,21.15-6.85,34.47a40.19,40.19,0,0,1-21,19.19V186q32.12,11,32.12,57.19V266.7q0,31.73-16.65,48.37T1202,331.72h-67.77Zm59.93,111.64q12.93,0,19.39-6.66t6.47-22.33V124.87q0-14.9-5.29-21.55t-16.65-6.66h-20.76v72.47Zm7.84,123.39q11.35,0,16.84-6.07t5.48-21V241.6q0-18.81-6.46-26t-21.35-7.25h-19.19v84.22Z"/><rect class="cls-2" x="1047.78" y="115.59" width="21.62" height="158"/><rect class="cls-2" x="1091.03" y="90.59" width="21.62" height="208"/><polygon class="cls-2" points="1330.42 287.59 1330.42 101.59 1516.42 101.59 1516.42 180.85 1527.75 183.36 1560.42 176.28 1560.42 57.59 1286.42 57.59 1286.42 331.59 1560.42 331.59 1560.42 211.93 1548.57 207.5 1516.42 219.18 1516.42 287.59 1330.42 287.59"/><polygon class="cls-2" points="1574.91 213.4 1596.13 238.27 1599.32 212.41 1574.91 213.4"/><polygon class="cls-2" points="1575.2 170.32 1596.02 186 1607.87 163.24 1575.2 170.32"/><path class="cls-2" d="M1389.47,210.27a.17.17,0,0,0-.18-.09h-11V171.74H1482a62.91,62.91,0,1,0-102,68.34l9.52-29.62A.16.16,0,0,0,1389.47,210.27Z"/><path class="cls-2" d="M1469.44,225.66,1467,233.3h-24.73l-7.45,23.16a63,63,0,0,0,47.28-39.11h-10Z"/><path class="cls-2" d="M1497,206.35h-32.86l-5.13,16h-24.73l-12.71,39.56h-37l15.44-48a11.22,11.22,0,0,0-10.68-14.65h0V182.74H1497Z"/><polygon class="cls-2" points="1688.12 168.14 1727.27 57.49 1686.53 57.49 1656.76 146.02 1655.97 146.02 1626.99 57.49 1581.55 57.49 1622.13 172.2 1661.59 179.82 1688.12 168.14"/><polygon class="cls-2" points="1689.24 217.87 1644.14 206.63 1619.42 218.33 1579.2 331.69 1619.94 331.69 1652.06 236.11 1652.84 236.11 1684.18 331.69 1729.62 331.69 1689.24 217.87"/><polygon class="cls-2" points="1724.21 236.47 1739.4 251.64 1756.85 224.82 1724.21 236.47"/><polygon class="cls-2" points="1780.61 260.16 1784.92 272.35 1805.59 264.98 1780.61 260.16"/><polygon class="cls-2" points="1781.36 167.13 1793.1 161.58 1785.88 154.37 1781.36 167.13"/><polygon class="cls-2" points="1794.71 191.29 1784.33 207.25 1805.59 198.22 1794.71 191.29"/><polygon class="cls-2" points="1697.45 181.38 1661.72 196.56 1706.82 207.8 1697.45 181.38"/><polygon class="cls-2" points="1740.53 160.75 1714 172.42 1732.29 184.07 1740.53 160.75"/></g><g id="Ebene_7" data-name="Ebene 7"><rect class="cls-2" x="1832.77" y="189.91" width="9.36" height="9.36"/></g></svg>